<svg width="35" height="35" viewBox="0 0 35 35" fill="none" xmlns="http://www.w3.org/2000/svg">
<rect width="35" height="35" rx="3.5" fill="#2745A7"/>
<path d="M29.1663 10.1088C29.1663 14.6473 29.1663 19.1857 29.1663 23.7242C29.1603 23.7369 29.142 23.7496 29.142 23.7623C28.8321 25.0508 28.0847 25.6665 26.8087 25.6665C20.6047 25.6665 14.4007 25.6665 8.19672 25.6665C8.12381 25.6665 8.04481 25.6665 7.9719 25.6665C7.03006 25.6348 6.24013 25.0381 5.94846 24.1368C5.90592 24.0035 5.87554 23.8638 5.83301 23.7305C5.83301 19.1921 5.83301 14.6536 5.83301 10.1152C5.83908 10.1025 5.85731 10.0898 5.85731 10.0771C6.17329 8.77586 6.92068 8.1665 8.19672 8.1665C14.4007 8.1665 20.6047 8.1665 26.8026 8.1665C26.8877 8.1665 26.9728 8.1665 27.0518 8.1665C27.9814 8.20459 28.7592 8.80125 29.0509 9.69625C29.0934 9.83589 29.1299 9.96919 29.1663 10.1088ZM11.2167 18.6589C11.1681 18.697 11.1377 18.7224 11.0952 18.7478C10.0986 19.4841 9.56391 20.4806 9.49707 21.7501C9.46669 22.2706 9.74013 22.5943 10.2323 22.5943C12.1464 22.6007 14.0604 22.6007 15.9745 22.5943C16.4667 22.5943 16.7401 22.2833 16.7158 21.7565C16.6672 20.6647 16.2479 19.7507 15.4641 19.027C15.3183 18.8937 15.1542 18.7731 15.0023 18.6525C16.011 17.364 15.6889 15.7771 14.7531 14.9266C13.8052 14.0697 12.3651 14.0824 11.4233 14.971C10.524 15.8089 10.2262 17.3894 11.2167 18.6589ZM17.5058 12.6542C19.8877 12.6542 22.2757 12.6542 24.6577 12.6542C25.1863 12.6542 25.5023 12.3939 25.5084 11.9496C25.5144 11.4989 25.1924 11.226 24.6516 11.226C19.8816 11.226 15.1177 11.226 10.3478 11.226C9.81912 11.226 9.50315 11.4926 9.49707 11.9306C9.49099 12.3749 9.81912 12.6542 10.3538 12.6542C12.7358 12.6542 15.1177 12.6542 17.5058 12.6542ZM22.2575 16.4817C23.1021 16.4817 23.9406 16.4817 24.7853 16.4817C25.1924 16.4817 25.4962 16.177 25.5023 15.7771C25.5084 15.3836 25.2045 15.0599 24.8035 15.0535C23.1021 15.0472 21.4007 15.0472 19.6993 15.0599C19.5231 15.0599 19.3165 15.1741 19.1828 15.3074C18.9762 15.5042 18.9459 15.7835 19.0674 16.0501C19.195 16.3357 19.4198 16.4754 19.7236 16.4754C20.5743 16.4817 21.4189 16.4817 22.2575 16.4817ZM22.2575 19.5412C23.1082 19.5412 23.9589 19.5475 24.8096 19.5412C25.2045 19.5412 25.4962 19.2365 25.5084 18.843C25.5205 18.4494 25.2106 18.1194 24.8156 18.1194C23.1143 18.113 21.4129 18.113 19.7115 18.1257C19.5656 18.1257 19.4016 18.2019 19.274 18.2907C19.037 18.4621 18.9641 18.7731 19.0552 19.0524C19.1464 19.3508 19.3955 19.5412 19.7115 19.5412C20.5561 19.5412 21.4068 19.5412 22.2575 19.5412ZM21.5283 22.6007C22.142 22.6007 22.7558 22.607 23.3695 22.5943C23.7644 22.5816 24.0439 22.2643 24.0379 21.8771C24.0318 21.4962 23.7523 21.1852 23.3695 21.1788C22.142 21.1661 20.9146 21.1725 19.6872 21.1788C19.3834 21.1788 19.1707 21.3502 19.0613 21.6422C18.8912 22.1056 19.2071 22.5816 19.7115 22.5943C20.313 22.6134 20.9207 22.6007 21.5283 22.6007Z" fill="white"/>
<path d="M10.9919 21.1598C11.2228 20.2204 12.195 19.5094 13.1794 19.5412C14.1212 19.5729 15.0691 20.3219 15.2089 21.1598C13.8113 21.1598 12.4077 21.1598 10.9919 21.1598Z" fill="white"/>
<path d="M13.1125 18.1067C12.4806 18.1067 11.9702 17.5862 11.958 16.926C11.9459 16.2722 12.4563 15.7264 13.0882 15.72C13.7323 15.7137 14.2549 16.2468 14.2549 16.9133C14.2549 17.5671 13.7445 18.1067 13.1125 18.1067Z" fill="white"/>
</svg>
